<svg width="1784" height="1166" viewBox="0 0 1784 1166" fill="none" xmlns="http://www.w3.org/2000/svg">
<path d="M1539.08 958.398C1600.58 968.398 1734.58 960.898 1782.58 842.898" stroke="#403F46" stroke-width="1.2"/>
<path d="M1561.08 91.3985C1658.58 69.3983 1743.58 100.899 1783.08 155.398" stroke="#403F46" stroke-width="1.2"/>
<path d="M1534.58 237.898C1596.74 239.731 1733.18 282.398 1781.58 438.398" stroke="#403F46" stroke-width="1.2"/>
<path d="M1537.58 865.398C1589.91 862.731 1710.58 833.898 1782.58 725.898" stroke="#403F46" stroke-width="1.2"/>
<path d="M181.578 1165.4C206.578 1089.23 288.378 935.598 421.578 924.398" stroke="#403F46" stroke-width="1.2"/>
<path d="M380.578 883.398C277.745 889.731 57.3781 956.498 0.578125 1164.9" stroke="#403F46" stroke-width="1.2"/>
<path d="M200.576 0.397949C76.4094 140.565 -63.3239 447.698 371.076 554.898" stroke="#403F46" stroke-width="1.2"/>
<path d="M72.5795 1.39795C50.0807 159.898 112.078 365.425 411.578 338.398" stroke="#403F46" stroke-width="1.2"/>
</svg>
